<?xml version="1.0" encoding="UTF-8"?>
<svg width="30px" height="30px" viewBox="0 0 30 30" version="1.1" xmlns="http://www.w3.org/2000/svg" xmlns:xlink="http://www.w3.org/1999/xlink">
    <!-- Generator: Sketch 52.1 (67048) - http://www.bohemiancoding.com/sketch -->
    <title>Combined Shape</title>
    <desc>Created with Sketch.</desc>
    <g id="Page-1" stroke="none" stroke-width="1" fill="none" fill-rule="evenodd">
        <g id="16a.-Organization-Profile-01-(Ref02)" transform="translate(-1071.000000, -433.000000)" fill="#7D909A" fill-rule="nonzero">
            <path d="M1086,433 C1094.28427,433 1101,439.715729 1101,448 C1101,456.284271 1094.28427,463 1086,463 C1077.71573,463 1071,456.284271 1071,448 C1071,439.715729 1077.71573,433 1086,433 Z M1094.047,445.682886 C1094.80652,445.151779 1095.46963,444.493732 1096,443.754874 C1095.30078,444.043473 1094.54126,444.251332 1093.75762,444.332108 C1094.56535,443.870335 1095.18018,443.14299 1095.46956,442.277085 C1094.72206,442.704245 1093.87815,443.01598 1092.9981,443.177604 C1092.28678,442.450259 1091.2741,442 1090.15291,442 C1087.99492,442 1086.25886,443.674026 1086.25886,445.729085 C1086.25886,446.01772 1086.29504,446.306319 1086.35531,446.583404 C1083.12437,446.421745 1080.243,444.943992 1078.32611,442.681146 C1077.98852,443.235317 1077.79567,443.870299 1077.79567,444.562995 C1077.79567,445.85606 1078.48282,446.999015 1079.53169,447.668646 C1078.89277,447.645583 1078.28993,447.472409 1077.77154,447.195323 L1077.77154,447.241486 C1077.77154,449.054073 1079.10979,450.554925 1080.89405,450.901309 C1080.56856,450.982085 1080.21892,451.028284 1079.86931,451.028284 C1079.61611,451.028284 1079.37501,451.005184 1079.13387,450.970571 C1079.62817,452.448359 1081.06282,453.522052 1082.77476,453.556701 C1081.43655,454.561131 1079.76076,455.149915 1077.94036,455.149915 C1077.61483,455.149915 1077.31346,455.138365 1077,455.103752 C1078.724,456.165859 1080.77348,456.777778 1082.97972,456.777778 C1090.14093,456.777778 1094.05906,451.097546 1094.05906,446.167794 C1094.05906,446.00617 1094.05906,445.84451 1094.047,445.682886 Z" id="Combined-Shape"></path>
        </g>
    </g>
</svg>