<?xml version="1.0" encoding="UTF-8"?>
<svg width="30px" height="30px" viewBox="0 0 30 30" version="1.1" xmlns="http://www.w3.org/2000/svg" xmlns:xlink="http://www.w3.org/1999/xlink">
    <!-- Generator: Sketch 52.1 (67048) - http://www.bohemiancoding.com/sketch -->
    <title>Combined Shape</title>
    <desc>Created with Sketch.</desc>
    <g id="Page-1" stroke="none" stroke-width="1" fill="none" fill-rule="evenodd">
        <g id="16a.-Organization-Profile-01-(Ref02)" transform="translate(-990.000000, -433.000000)" fill="#7D909A" fill-rule="nonzero">
            <path d="M1010.40568,461.996419 L1010.40568,452.265625 L1014.02992,452.265625 L1014.60606,448 L1010.40568,448 L1010.40568,445.060938 C1010.40568,443.828125 1010.76515,442.984375 1012.62652,442.984375 L1015,442.984375 L1015,439.16875 C1014.59129,439.117188 1013.18295,439 1011.54318,439 C1008.12083,439 1005.77689,440.9875 1005.77689,444.639063 L1005.77689,448 L1002,448 L1002,452.265625 L1005.77689,452.265625 L1005.77689,462.980228 C1005.51959,462.993356 1005.26057,463 1005,463 C996.715729,463 990,456.284271 990,448 C990,439.715729 996.715729,433 1005,433 C1013.28427,433 1020,439.715729 1020,448 C1020,454.378477 1016.01876,459.827085 1010.40568,461.996419 Z" id="Combined-Shape"></path>
        </g>
    </g>
</svg>