<?xml version="1.0" encoding="UTF-8"?>
<svg width="30px" height="30px" viewBox="0 0 30 30" version="1.1" xmlns="http://www.w3.org/2000/svg" xmlns:xlink="http://www.w3.org/1999/xlink">
    <!-- Generator: Sketch 52.1 (67048) - http://www.bohemiancoding.com/sketch -->
    <title>Group 9</title>
    <desc>Created with Sketch.</desc>
    <g id="Page-1" stroke="none" stroke-width="1" fill="none" fill-rule="evenodd">
        <g id="16a.-Organization-Profile-01-(Ref02)" transform="translate(-1151.000000, -433.000000)" fill="#7D909A" fill-rule="nonzero">
            <g id="Group-9" transform="translate(1151.000000, 433.000000)">
                <path d="M15,0 C23.2842712,-1.52179594e-15 30,6.71572875 30,15 C30,23.2842712 23.2842712,30 15,30 C6.71572875,30 1.01453063e-15,23.2842712 0,15 C-1.01453063e-15,6.71572875 6.71572875,1.52179594e-15 15,0 Z M15.6542421,6.000119 C13.448288,5.99131123 11.3292968,6.85976978 9.76394895,8.41422783 C8.19860112,9.96868588 7.31528288,12.0816504 7.30853367,14.2877682 C7.30652654,15.7962517 7.7207839,17.2760363 8.50569533,18.5641952 L7,23 L11.6203555,21.5324486 C14.6557883,23.2446756 18.4374372,22.8784989 21.0880228,20.6156954 C23.7386084,18.3528919 24.6937106,14.6753068 23.4791991,11.4085602 C22.2646877,8.14181361 19.1391829,5.98153223 15.6542421,6.000119 Z M19.8028725,17.4268747 C19.4688483,17.9399261 18.9317134,18.2859805 18.3265007,18.3780418 C17.9350964,18.3984422 17.923622,18.6814973 15.7906598,17.7558306 C14.3269302,17.0017321 13.1071854,15.847778 12.273121,14.4280207 C11.7994174,13.7813592 11.5255031,13.0100896 11.4852127,12.2094808 C11.4987261,11.5423018 11.7937327,10.9119525 12.2973447,10.4741745 C12.4497306,10.3194495 12.6577306,10.2322027 12.8748891,10.2319202 C13.0431802,10.2319202 13.1528244,10.2319202 13.2752179,10.2319202 C13.3976115,10.2319202 13.5863015,10.2064197 13.746943,10.6361024 C13.9075845,11.0657852 14.295164,12.1215042 14.3436114,12.2298811 C14.4064106,12.3455854 14.4064106,12.4852085 14.3436114,12.6009128 C14.2847039,12.7259574 14.2087612,12.8422394 14.1179484,12.946444 C14.0070292,13.0662962 13.8833608,13.2141989 13.785191,13.3060005 C13.6870212,13.3978022 13.558253,13.5176543 13.6755468,13.7344082 C13.9753875,14.2899282 14.3560712,14.7978289 14.805137,15.2414853 C15.2941422,15.7067434 15.8606509,16.0830044 16.4791234,16.3533054 C16.6894873,16.4680574 16.8144307,16.4540322 16.9419239,16.3188797 C17.0694172,16.1837273 17.4965196,15.722169 17.6482365,15.5156153 C17.7999535,15.3090616 17.9401961,15.3485873 18.1327109,15.4276387 C18.3252257,15.5066901 19.3515464,16.056225 19.5619103,16.1697021 C19.7722741,16.2831791 19.9099669,16.3418302 19.9609642,16.4310818 C20.0078231,16.7713432 19.9528101,17.117861 19.8028725,17.4268747 Z" id="Combined-Shape"></path>
            </g>
        </g>
    </g>
</svg>